<?xml version="1.0" encoding="utf-8"?>
<svg viewBox="-11.5 -10.232 23 20.463" xmlns="http://www.w3.org/2000/svg">
  <circle fill="#61dafb" r="2.05"/>
  <g fill="none" stroke="#61dafb">
    <ellipse rx="11" ry="4.2"/>
    <ellipse rx="11" ry="4.2" transform="rotate(60)"/>
    <ellipse rx="11" ry="4.2" transform="rotate(120)"/>
  </g>
  <g transform="matrix(0.011833, 0, 0, 0.011842, -0.316217, -0.032452)" style="">
    <path style="fill:#FF5A5A;" d="M 260.591 -114.711 C 254.933 -136.223 238.261 -153.166 217.093 -158.916 C 178.725 -169.364 64.22 -169.364 24.872 -169.364 C -14.476 -169.364 -128.981 -169.364 -167.349 -158.916 C -188.517 -153.166 -205.189 -136.223 -210.847 -114.711 C -221.128 -75.72 -221.128 5.635 -221.128 5.635 C -221.128 5.635 -221.128 86.989 -210.847 125.982 C -205.189 147.494 -188.517 164.437 -167.349 170.187 C -128.981 180.635 -33.128 180.635 24.872 180.635 C 82.872 180.635 178.725 180.635 217.093 170.187 C 238.261 164.437 254.933 147.494 260.591 125.982 C 270.872 86.989 270.872 5.635 270.872 5.635 C 270.872 5.635 270.872 -75.72 260.591 -114.711 Z" transform="matrix(0.999845, 0.017612, -0.017612, 0.999845, 0.10311, -0.437172)"/>
    <path d="M 30.457 -159.295 C 30.448 -159.295 30.439 -159.295 30.43 -159.295 L 29.705 -159.297 C 24.19 -159.312 19.73 -163.788 19.732 -169.3 C 19.732 -169.308 19.732 -169.316 19.732 -169.324 C 19.747 -174.838 24.222 -179.297 29.732 -179.297 C 29.742 -179.297 29.75 -179.297 29.76 -179.297 L 30.484 -179.295 C 35.999 -179.28 40.459 -174.804 40.457 -169.292 C 40.457 -169.284 40.457 -169.276 40.457 -169.268 C 40.442 -163.754 35.967 -159.295 30.457 -159.295 Z" transform="matrix(0.999845, 0.017612, -0.017612, 0.999845, -2.976974, -0.556283)"/>
    <path d="M 24.869 190.635 C 18.533 190.635 -130.772 190.512 -169.98 179.835 C -194.587 173.151 -213.956 153.49 -220.522 128.525 C -231.01 88.743 -231.131 9.01 -231.131 5.635 C -231.131 2.26 -231.01 -77.473 -220.52 -117.26 C -213.956 -142.219 -194.587 -161.881 -169.974 -168.566 C -144.073 -175.619 -71.203 -178.137 -14.634 -179.006 C -9.126 -179.054 -4.566 -174.683 -4.481 -169.161 C -4.397 -163.639 -8.804 -159.093 -14.326 -159.009 C -92.666 -157.804 -146.078 -154.345 -164.725 -149.267 C -182.461 -144.449 -196.428 -130.234 -201.18 -112.167 C -211.011 -74.88 -211.131 4.834 -211.131 5.635 C -211.131 6.435 -211.011 86.149 -201.181 123.432 C -196.428 141.505 -182.461 155.72 -164.731 160.536 C -128.077 170.517 23.344 170.635 24.869 170.635 C 26.394 170.635 177.815 170.518 214.463 160.538 C 232.199 155.72 246.166 141.505 250.918 123.438 C 260.749 86.149 260.869 6.435 260.869 5.634 C 260.869 4.834 260.749 -74.88 250.919 -112.162 C 246.166 -130.235 232.199 -144.45 214.469 -149.266 C 196.222 -154.235 144.344 -157.67 68.384 -158.94 C 62.862 -159.032 58.46 -163.584 58.552 -169.106 C 58.644 -174.628 63.228 -179.013 68.718 -178.938 C 123.598 -178.021 194.343 -175.476 219.718 -168.565 C 244.325 -161.881 263.694 -142.22 270.26 -117.255 C 280.748 -77.473 280.869 2.26 280.869 5.635 C 280.869 9.01 280.748 88.743 270.258 128.531 C 263.694 153.49 244.325 173.152 219.712 179.837 C 180.51 190.512 31.205 190.635 24.869 190.635 Z" transform="matrix(0.999845, 0.017612, -0.017612, 0.999845, 0.106259, -0.437091)"/>
    <polygon style="fill:#FFFFFF;" points="-23.073 -64.594 100.927 7.406 -23.073 79.406" transform="matrix(0.999845, 0.017612, -0.017612, 0.999845, 0.136472, -0.684434)"/>
    <path d="M -173.524 77.167 C -179.047 77.167 -183.524 72.69 -183.524 67.167 L -183.524 -14.333 C -183.524 -19.856 -179.047 -24.333 -173.524 -24.333 C -168.001 -24.333 -163.524 -19.856 -163.524 -14.333 L -163.524 67.167 C -163.524 72.69 -168.001 77.167 -173.524 77.167 Z" transform="matrix(0.999845, 0.017612, -0.017612, 0.999845, 0.438342, 3.060202)"/>
    <path d="M -172.006 -49.702 C -177.529 -49.702 -182.006 -54.179 -182.006 -59.702 L -182.006 -59.82 C -182.006 -65.343 -177.529 -69.82 -172.006 -69.82 C -166.483 -69.82 -162.006 -65.343 -162.006 -59.82 L -162.006 -59.702 C -162.006 -54.179 -166.483 -49.702 -172.006 -49.702 Z" transform="matrix(0.999845, 0.017612, -0.017612, 0.999845, -1.07919, 3.020101)"/>
    <path d="M -23.073 89.406 C -24.796 89.406 -26.518 88.962 -28.062 88.073 C -31.162 86.288 -33.073 82.984 -33.073 79.406 L -33.073 -64.594 C -33.073 -68.171 -31.162 -71.476 -28.062 -73.261 C -24.962 -75.046 -21.145 -75.039 -18.051 -73.242 L 105.949 -1.242 C 109.031 0.548 110.928 3.842 110.928 7.406 C 110.928 10.97 109.032 14.264 105.949 16.054 L -18.051 88.054 C -19.603 88.956 -21.338 89.406 -23.073 89.406 Z M -13.073 -47.224 L -13.073 62.036 L 81.012 7.406 L -13.073 -47.224 Z" transform="matrix(0.999845, 0.017612, -0.017612, 0.999845, 0.136466, -0.684443)"/>
    <g transform="matrix(0.999844, 0.017612, -0.017612, 0.999844, -226.579575, -254.832138)"/>
    <g transform="matrix(0.999844, 0.017612, -0.017612, 0.999844, -226.579575, -254.832138)"/>
    <g transform="matrix(0.999844, 0.017612, -0.017612, 0.999844, -226.579575, -254.832138)"/>
    <g transform="matrix(0.999844, 0.017612, -0.017612, 0.999844, -226.579575, -254.832138)"/>
    <g transform="matrix(0.999844, 0.017612, -0.017612, 0.999844, -226.579575, -254.832138)"/>
    <g transform="matrix(0.999844, 0.017612, -0.017612, 0.999844, -226.579575, -254.832138)"/>
    <g transform="matrix(0.999844, 0.017612, -0.017612, 0.999844, -226.579575, -254.832138)"/>
    <g transform="matrix(0.999844, 0.017612, -0.017612, 0.999844, -226.579575, -254.832138)"/>
    <g transform="matrix(0.999844, 0.017612, -0.017612, 0.999844, -226.579575, -254.832138)"/>
    <g transform="matrix(0.999844, 0.017612, -0.017612, 0.999844, -226.579575, -254.832138)"/>
    <g transform="matrix(0.999844, 0.017612, -0.017612, 0.999844, -226.579575, -254.832138)"/>
    <g transform="matrix(0.999844, 0.017612, -0.017612, 0.999844, -226.579575, -254.832138)"/>
    <g transform="matrix(0.999844, 0.017612, -0.017612, 0.999844, -226.579575, -254.832138)"/>
    <g transform="matrix(0.999844, 0.017612, -0.017612, 0.999844, -226.579575, -254.832138)"/>
    <g transform="matrix(0.999844, 0.017612, -0.017612, 0.999844, -226.579575, -254.832138)"/>
  </g>
</svg>